<?xml version="1.0" encoding="UTF-8"?>
<svg viewBox="0 0 640 480" xmlns="http://www.w3.org/2000/svg" xmlns:xlink="http://www.w3.org/1999/xlink">
 <defs>
  <linearGradient id="a">
   <stop stop-opacity=".67843" offset="0"/>
   <stop stop-opacity=".32941" offset=".57"/>
   <stop stop-opacity="0" offset="1"/>
  </linearGradient>
  <linearGradient id="g" x1=".32826" x2=".3367" y1=".16154" y2="1.3926">
   <stop stop-color="#fff" stop-opacity="0" offset="0"/>
   <stop stop-color="#fff" offset="1"/>
  </linearGradient>
  <linearGradient id="f" x1="1.887" x2=".70435" y1=".34091" y2=".41288">
   <stop stop-color="#1f1f1f" stop-opacity=".55372" offset="0"/>
   <stop stop-opacity="0" offset="1"/>
  </linearGradient>
  <linearGradient id="e" x1=".93773" x2=".35897" y1=".83121" y2=".09236">
   <stop stop-color="#4f4f4f" offset="0"/>
   <stop stop-color="#bebebe" offset=".27444"/>
   <stop stop-color="#fff" offset="1"/>
  </linearGradient>
  <linearGradient id="d" x1=".98876" x2=".52809" y1="4.0156" y2="-.07031" xlink:href="#a"/>
  <linearGradient id="c" x1=".99893" x2=".52919" y1="4.0726" y2="-.07944" xlink:href="#a"/>
  <linearGradient id="b" x1="1.0094" x2=".52949" y1="4.1349" y2="-.09017" xlink:href="#a"/>
 </defs>
 <path d="m390.18 193.02c-5.6237 1.7864-8.668 5.4295-12.553 9.859-3.2227 3.6748-1.2068 22.218 4.7798 20.17 7.2414-2.3915 7.8496-24.278 7.7732-30.029" fill="#f4f2f2"/>
 <path d="m389.2 193.17c-0.258 3.8436-2.3852 20.829-7.4993 22.508-3.2195-2.3374-5.3658-5.5059-6.423-9.4864-1.3057 2.5985 3.2544 18.18 7.1299 16.855 6.8465-2.2609 7.8082-30.112 6.7924-29.876" fill="#e2e0e0"/>
 <path d="m188.15 225.77c0-77.802 64.956-142.76 142.76-142.76 77.786 0 142.75 64.975 142.75 142.76 0.01263 77.77-64.994 142.75-142.75 142.75-77.789 0-142.76-64.962-142.76-142.75m142.76-150.9c-82.136 0-150.91 68.771-150.91 150.9 0 82.136 68.777 150.86 150.91 150.86s150.85-68.726 150.85-150.86c0-82.123-68.714-150.9-150.85-150.9" fill="#122c8c"/>
 <path d="m473.66 225.77c0 77.77-64.988 142.75-142.75 142.75-77.786 0-142.76-64.962-142.76-142.75 0-77.802 64.956-142.76 142.76-142.76 77.783 0 142.75 64.975 142.75 142.76" fill="#0d33bf"/>
 <path d="m330.91 87.795c-73.022 0-134.95 59.377-137.86 132.37 11.235 1.9839 11.445-24.138 14.881-33.37 6.114-16.425 15.569-31.574 27.609-44.318 24.644-26.084 59.482-41.101 95.37-41.101 69.914 0 128.96 57.256 131.06 127.15 23.253-20.667-13.445-78.818-30.01-96.654-25.94-27.937-62.921-44.079-101.05-44.079" fill="#8dc8ef"/>
 <path d="m332.6 363.68c-2.2609 0.00638-2.2609 0.00638 0 0m-3.4041 0c2.277 0.00638 2.277 0.00638 0 0m139.59-141.02c-11.903 9.8207-8.0534 34.494-12.935 49.789-5.2702 16.53-13.878 31.949-25.141 45.149-24.39 28.596-60.533 45.595-98.112 46.082 75.697-0.92352 137.9-65.338 136.19-141.02m-268.44-3.0029c-9.4895 2.054-7.7955 1.8597-7.2541 12.938s2.4106 22.087 5.5855 32.72c5.5344 18.511 15.015 35.767 27.622 50.397 25.676 29.803 63.545 47.493 102.89 47.967-75.853-0.97128-136.18-68.599-128.85-144.02" fill="#8dc8ef"/>
 <path d="m430.08 193.19c0 7.7254 13.961 33.274 22.89 28.485 10.381-5.5664 21.836-13.098 16.712-24.307-9.6298-21.033-13.75-42.55-28.494-61.284-8.4355-10.719-33.255-35.764-48.368-36.271-4.1016-0.13693-6.6301 3.9933-8.6713 6.8338-8.8018 12.254-3.5601 8.6807 2.6654 16.645 4.1462 5.3021 2.3532 14.269-5.4039 11.862-3.3055-1.0222-6.7606-7.649-9.566-9.8908-28.803-22.966-3.3851 16.327-7.5916 22.339-2.7387 3.9168-19.896 11.155-12.458 16.938 4.6748 3.6207 10.993 4.404 16.594 5.4231-16.909 8.1362-28.246 16.632-29.819 35.296-2.1559 25.625 8.0789 30.058 31.889 29.026 37.755-1.6432-4.7543 84.107 37.93 80.072 10.311-0.97766 30.832-34.064 26.845-43.531-4.1333-9.7953-6.7064-12.282 3.7067-18.858 3.9296-2.4743 18.906-10.063 14.148-17.037-3.6779-5.3785-11.935-7.4993-16.492-12.32-6.2095-6.5632-7.8591-15.193-9.585-23.695-5.041-24.743-23.192-11.661-35.764-25.084 12.489 1.933 38.834 1.0318 38.834 19.358" fill="#65beef"/>
 <path d="m451 268.67c-5.818 1.8597-8.9611 5.6237-12.992 10.212-3.3309 3.7927-1.261 22.982 4.9517 20.88 7.4994-2.5093 8.1204-25.116 8.0408-31.093" fill="#65beef"/>
 <path d="m272.06 109.53c0.59863-2.1941 0-5.0919 0-7.3878-14.349-4.0698-37.748 21.95-46.193 31.185-13.113 14.333-23.558 31.115-30.376 49.32-1.8278 4.8754-12.661 31.106-2.6398 33.659 7.2541 1.8533 24.437 2.7227 29.026 8.7189 8.719 11.4 4.3531 15.623 4.6938 29.86 0.24521 9.7953 10.888 19.823 16.658 27.068 5.907 7.4133-3.2705 42.2-4.2322 52.276 0.035-0.62732 0.35025-1.0318 0.94257-1.2069 4.2257 4.4774 7.6299 9.3368 13.451 13.273 10.235-21.743 26.832-34.382 40.933-53.763 7.4548-10.244 4.1621-22.383 10.302-32.994 3.2896-5.6779-0.54126-5.8339-5.993-10.031-19.333-14.897-36.22-21.135-59.641-27.354-9.0151-2.3883-18.594-3.2831-21.301-13.738-2.3596-9.1234-6.8721-8.0406-16.034-10.716 3.3182-7.7318 24.507-20.667 25.447-7.1968 0.92981 13.285 11.512 23.689 25.233 23.673 8.3496-0.00635-11.509-14.037-14.559-14.642-7.3941-1.4743-9.2347-12.671-7.9929-18.664 1.2832-6.181 14.559-15.597 19.014-20.524 7.9485-8.789 16.734 1.0796 25.374-6.2765-11.069-1.0858-23.396-13.282-5.7892-10.881 4.2384 0.57323 1.8947 8.5375 9.1202 8.3401 18.345-0.51273-12.015-12.614-8.4515-7.9579-2.3023-3.0061 11.719-5.5473 5.5505-13.875-4.42-5.958-18.992-18.409-2.5411-20.167" fill="#65beef"/>
 <path d="m289.8 89.181c-9.929 2.9711 0.4108 29.376 10.509 27.128 5.1269-1.14 8.5916-12.435 13.206-15.508 1.3151-0.87892 27.185-13.725 27.431-11.973 0.9585 6.9166-7.1777 10.754 0.84393 15.938 7.8941 5.1047 14.378 6.872 11.515-5.8148-6.3529-28.44-43.452-15.683-63.504-9.7698" fill="#65beef"/>
 <path d="m242.54 274.74c1.1974 0 1.5572 50.212-5.1684 50.212 0.42673-0.00323 1.9361-50.212 5.1684-50.212" fill="#fff"/>
 <path d="m330.88 355.97c-72.513 0-135.42-56.262-143.22-128.42 0.94574 77.372 65.847 141.46 143.22 141.46 77.382 0 142.27-64.093 143.23-141.46-7.8018 72.159-70.713 128.42-143.23 128.42" fill="#0f30a8"/>
 <path d="m430.08 184.12c0 8.1712 13.941 33.306 23.281 28.249 7.391-3.9996 24.358-14.486 21.524-24.033-7.2415-24.288-19.699-47.563-37.194-66.026-8.652-9.1202-31.363-31.112-44.872-31.574-4.1079-0.14008-6.6301 3.9901-8.6713 6.8401-8.8018 12.254-3.5601 8.6776 2.6654 16.642 4.1462 5.302 2.3532 14.266-5.4039 11.859-3.3055-1.0222-6.7606-7.6458-9.566-9.8877-28.803-22.96-3.3851 16.32-7.5916 22.339-2.7387 3.9168-19.896 11.155-12.458 16.935 4.6748 3.6239 10.993 4.4168 16.594 5.4231-16.909 8.1267-28.246 16.629-29.819 35.293-2.1559 25.631 8.0789 30.055 31.889 29.026 37.758-1.6304-4.7607 84.094 37.93 80.072 10.311-0.97122 30.832-34.057 26.845-43.531-4.1333-9.7826-6.7064-12.276 3.7067-18.852 3.9296-2.4743 18.906-10.069 14.148-17.043-3.6779-5.3785-11.935-7.5057-16.492-12.314-6.2095-6.5695-7.8591-15.193-9.585-23.695-5.041-24.753-23.199-11.649-35.764-25.084 12.496 1.9265 38.834 1.0317 38.834 19.361" fill="#14bc14"/>
 <path d="m453.42 262.62c-5.8179 1.8534-8.9642 5.6237-12.996 10.206-3.3245 3.7927-1.2737 22.976 4.9518 20.88 7.4962-2.4998 8.1204-25.109 8.0439-31.086" fill="#6be06b"/>
 <path d="m452.4 262.78c-0.24518 3.9933-2.4616 21.546-7.7541 23.297-3.331-2.4201-5.5441-5.6905-6.6523-9.8144-1.3533 2.694 3.3628 18.801 7.3815 17.447 7.0153-2.3405 8.1777-31.191 7.0249-30.93" fill="#20db20"/>
 <path d="m268.43 101.47c0.59863-2.1972 0-5.0919 0-7.3879-14.368-4.057-37.742 21.934-46.2 31.185-14.776 16.158-26.154 35.42-32.784 56.304-12.356 38.91 17.225 20.256 34.268 42.56 5.6269 7.3688-3.5634 22.428 2.971 32.36 4.8372 7.3592 13.986 13.938 13.126 22.988-1.226 12.887-2.4552 25.768-3.6717 38.656-0.24509 2.5125-0.92981 5.4931-0.76733 8.0342-2.0763 1.9775-2.8151 4.5283-2.2164 7.6617 5.0282 4.5474 10.375 8.7508 15.995 12.543 4.2131-8.9737 3.5061-18.26 9.6138-27.049 9.0215-12.992 22.629-22.068 31.93-34.854 7.4515-10.244 4.1684-22.383 10.302-33 3.2769-5.6778-0.54773-5.8338-5.9994-10.031-19.333-14.897-36.213-21.129-59.632-27.341-9.0087-2.3946-18.594-3.2895-21.304-13.738-2.3596-9.1298-6.872-8.0471-16.037-10.716 3.3182-7.7382 24.523-20.673 25.453-7.1968 0.9171 13.279 11.521 23.667 25.233 23.667 8.3241 0-11.493-14.031-14.562-14.636-7.4005-1.4744-9.2347-12.674-7.9928-18.67 1.2865-6.1746 14.556-15.6 19.014-20.517 7.942-8.7826 16.728 1.0636 25.367-6.2797-11.069-1.0859-23.39-13.279-5.7829-10.881 4.2417 0.5764 1.8884 8.5406 9.1202 8.3369 18.345-0.51904-12.015-12.601-8.4579-7.9579-2.296-2.9997 11.725-5.5472 5.5568-13.875-4.42-5.9612-18.995-18.409-2.5444-20.167" fill="#14bc14"/>
 <path d="m288.8 83.732c-9.9354 3.0125 0.41721 29.373 10.509 27.134 5.1269-1.1368 8.5979-12.445 13.206-15.514 1.3151-0.87576 27.185-13.715 27.431-11.967 0.9585 6.9198-7.1777 10.747 0.84393 15.935 7.8941 5.1046 14.378 6.8688 11.515-5.8084-6.3529-28.44-43.445-15.683-63.504-9.7794" fill="#14bc14"/>
 <path d="m352.31 93.511c-0.94574-4.3117-2.5985-8.3305-4.9582-12.056 1.9775 5.404 5.4294 19.008-4.2767 13.432-7.6235-4.3786 4.4328-17.247-5.9708-14.992-15.629 3.3882-25.163 9.3686-34.29 21.839-7.5886 10.362-14.349-13.556-14.808-17.626-8.6617 4.2321 1.5794 28.918 11.311 26.756 5.127-1.1369 8.598-12.445 13.206-15.515 1.3153-0.8757 27.186-13.715 27.431-11.967 0.9585 6.9198-7.1777 10.747 0.84381 15.935 7.891 5.1046 14.375 6.872 11.512-5.8052" fill="#35e035"/>
 <path d="m287.02 279.96c-0.82477-0.04456-1.5444-15.206-3.1972-17.285-6.1682-7.7382-17.425-0.03183-23.339 3.8563-21.858 14.381-30.074-10.655-37.057-29.039-2.0508 21.176 17.639 28.854 15.706 49.171-1.105 11.582-2.21 23.173-3.3086 34.761-0.31845 3.3532-0.39485 3.7576-1.8247 6.4421-4.3786 8.2286 9.7126 14.833 15.155 18.511 7.2478-15.438 7.8528-26.619 21.135-40.073 12.566-12.738 24.733-22.625 26.552-41.13-4.713-0.83112-4.4805 15.085-9.8208 14.785m-100.41-74.566c2.6336 2.2769 3.8723 4.334 8.3051 4.3148-3.1272-5.6046-8.3974-7.4197-9.2349-13.734-0.23557 3.1939 0.07327 6.337 0.92981 9.4196" fill="#14bc14"/>
 <path d="m433.53 242.5c-9.4959 22.364-8.9927-7.5885-23.874 0.24203-7.6903 3.0157-12.247 31.322-15.206 30.625-3.3469-0.78333-2.5094-16.451-6.6109-15.257-7.6076 2.2068 2.6781 44.334 11.617 46.41 8.5948 1.9902 17.581 0.41708 21.89-8.2032 3.2099-6.4134 14.499-23.845 14.773-30.545 0.24829-6.1269-10.098-14.018-2.7259-19.224 4.2671-3.0093 25.402-12.731 19.581-20.804-6.2574 5.8848-15.346 8.5661-19.444 16.756m40.299-44.999c-0.09552 0.51587-0.02863 0.16241 0 0" fill="#14bc14"/>
 <path d="m255.74 137.56c10.693-9.6265 6.6778 2.5412 12.072 3.2449 0.9649 0.12741 19.466 5.8816 8.4228-5.3721-0.01282 9.2763-11.824-1.7674-12.833-3.6462-3.7512-6.9612-16.482 2.0094-7.6616 5.7734m-23.549 60.444c-2.4711-0.82156-4.4583-2.2896-5.9582-4.3977 1.6591 9.7094 32.226 15.101 21.96 5.0187 6.9802 7.9992-14.607-0.6019-16.002-0.621m-2.331-30.414c9.8335-2.675 11.416-15.457 20.39-19.294 7.0725-3.022 12.989 3.9168 20.285-2.2864-14.473-3.8882-23.227-5.8402-32.828 7.2096-7.1873 9.7603-21.705 14.269-11.047 29.239-0.96814-3.5093-2.3279-13.362 3.2004-14.868m-14.683 9.8048c2.4361-0.03824 4.8467 0.1879 7.2318 0.67828-6.9356-11.837-30.106-2.1018-24.386 11.575 2.5412-6.5758 10.162-11.926 17.155-12.254m84.145 67.418c1.261 4.4455-4.3722 8.0184-5.0282 12.515-1.6623 11.451-1.589 17.588-9.8463 26.826-9.0501 10.133-20.352 18.552-28.144 29.768-6.1077 8.789-5.4072 18.068-9.6266 27.048-4.7034-3.2162-9.2029-6.7-13.489-10.448-1.1814 7.5439 15.015 21.75 16.67 13.441 3.124-15.699 9.0087-26.077 20.431-37.653 9.5087-9.6392 26.313-21.95 26.313-37.086 0-9.5947 9.7762-18.769 2.7195-24.412m-61.523 24.514c-5.1365-6.4071-10.318-12.919-14.648-19.903 3.6207 9.324 10.974 17.47 17.113 25.307-0.81836-1.7992-1.6431-3.6016-2.4647-5.4039m-50.763-66.421c-1.277 8.0056 12.4 7.9483 17.97 9.3781 11.375 2.9042 13.043 4.385 20.355 13.597 2.3024-15.05-30.045-20.237-38.324-22.976m78.932-73.783c2.1367-1.4234 4.2894-1.4839 6.4421-0.18149 1.261-2.7959 0.67822-5.3594-1.7515-7.6776 0.02225 2.8309-9.6997 6.2319-7.7064 8.8336l3.0157-0.97443m2.4647-27.65c0.46814-2.3024 0-5.025 0-7.3879-5.3084 2.538-14.763 5.439-8.3113 13.355 0.09235-5.4867 5.802-3.8181 8.3113-5.9676" fill="#4fea4f"/>
 <path d="m360.9 141.98c5.6619-3.8818 13.126-9.0438 8.2826-16.67-0.47125-0.74197-12.508-15.072-12.677-11.897-0.57315 11.107 16.562 18.199 4.3945 28.568m0.5986 17.648c2.2896 0.62729 4.5984 1.1814 6.923 1.6463-2.9456-4.006-17.954-9.0119-12.088-15.782-9.6233 6.7255-5.4326 12.324 5.1651 14.136m27.252-40.48c0.00323 1.2451 0.00323 2.4966 0.00952 3.7385 8.426 0.48717 4.3435-12.037-0.24194-14.566-7.7064-4.248-2.9011-9.6201 1.7132-15.473-0.54462-0.15919-1.0095-0.43303-1.3916-0.80884-17.537 17.537-2.1081 12.706-0.08911 27.109m45.7 150.45c0.54462-1.3565 1.0891-2.7131 1.6368-4.0665-4.4105 7.0122-4.9582 8.3623-1.6368 4.0665m-33.669 26.698c-6.3879-1.917-10.381-30.787-10.674-36.554-0.8757-17.422 4.299-24.66-6.7733-38.337-7.2987-8.9865-27.281 4.5027-36.882-7.3751-4.7353-5.8721-0.90118-29.176-5.1396-31.446-2.0381-1.0955-2.6431 30.618-1.2834 34.213 5.9645 15.766 31.383 5.4104 43.397 14.623 7.4834 5.7287 3.1621 20.177 2.2386 27.708-1.331 10.897 3.0158 22.31 5.2384 32.933 3.9009 18.642 24.88 16.667 32.16 0.60187-5.6556 6.6936-14.773 5.8912-22.281 3.6334m72.299-101.84c-5.2925 4.2417-10.302 9.1998-16.342 12.464-6.8975 3.7321-12.719-7.4643-16.995-12.528-8.4675-10.044-2.3661-25.396-17.578-29.536-11.152-3.0348-20.565 1.519-30.924-0.09232 10.811 1.554 24.705 0.99033 33.586 8.0343 8.1138 6.4484 4.9708 20.189 12.601 28.367 7.2064 7.719 9.0342 16.151 19.435 9.0374 4.353-2.9774 17.228-11.101 16.218-15.747m-38.426 51.25c5.579-3.7767 18.084-8.8145 19.03-16.75-4.3881 4.2289-20.094 9.4227-19.03 16.75" fill="#59e059"/>
 <path d="m370.96 173.57c-9.1871 21.606-8.6903-7.3464-23.068 0.23563-7.4165 2.9106-11.852 30.265-14.693 29.593-3.2258-0.7706-2.4297-15.897-6.3816-14.753-7.3624 2.1399 2.5858 42.846 11.216 44.843 24.055 5.5664 21.957-20.985 33.809-33.749 5.7989-6.2383-5.0122-12.528-3.4741-19.002 1.5858-6.6491 28.316-13.789 21.374-23.361-6.0536 5.6874-14.827 8.2764-18.782 16.193m38.939-43.474c-0.11145 0.52856-0.02863 0.14966 0 0" fill="#14bc14"/>
 <path d="m243.56 91.906-3.2426 0.16026s1.1105 10.504 11.442 24.371 21.184 25.955 65.859 38.802l2.3418-2.4055c-35.139-9.8435-56.41-25.277-65.95-38.079s-10.451-22.848-10.451-22.848zm131.45 28.219c-11.104 0.14861-21.349 3.7124-30.543 9.5396-12.257 7.7697-22.688 19.501-31.533 33.029-8.0469 12.309-14.707 26.22-20.272 40.004-15.429-4.5576-30.953-6.829-40.723-4.2484-21.282 5.9653-55.229 102.26-64.327 119.05-3.1378 6.6884-3.4736 16.075-1.352 25.413 2.7345 14.487 11.696 29.231 26.759 33.832 25.822 9.5065 61.586-2.034 72.976-19.721 11.246-18.511 60.141-106.46 55.41-123.78-0.09686-0.29195-0.50421-0.5878-0.63153-0.881-0.04379-0.26408 0.15518-0.80536 0.09021-1.0429-3.0543-9.2809-21.752-19.818-42.074-26.696 4.8641-14.106 10.859-28.201 18.469-39.844 8.5432-13.066 18.239-25.732 29.371-32.788 18.419-14.425 53.832-8.6467 46.129-9.9417-3.8755-0.74434-14.047-1.973-17.749-1.9238zm25.047 10.422c-0.42062 0.01324-0.38614 0.22157 0.35956 0.64084 2.9853 1.681 3.8994 3.1326 4.0546 4.4899s-0.54663 3.1564-2.5222 5.2912-5.1706 4.4899-9.1907 6.6539c-16.077 8.6534-46.999 13.779-66.67 7.2151l-1.6214 2.3246c22.72 7.5813 52.495 2.9641 70.364-6.6539 4.4673-2.4041 12.888-8.7024 12.163-14.51-0.54395-3.6938-5.6761-5.4929-6.9364-5.4518z" fill="url(#b)" fill-rule="evenodd"/>
 <path d="m239.89 89.519c-5.5845 4.5793 1.0641 12.526 3.1896 17.878 11.093 22.542 34.511 38.473 60.523 45.668 14.284 1.1981 8.0709 8.9028 2.6125 16.369-6.622 9.4255-10.305 20.109-15.331 30.236-14.857-2.4957-32.978-9.5091-46.309 0.24016-22.729 25.171-32.553 56.865-46.569 86.185-6.8077 17.803-19.002 35.79-14.677 55.161 2.6005 17.564 14.769 36.249 35.835 39.647 30.235 6.683 65.721-7.5402 75.992-34.607 18.709-34.42 38.712-68.874 49.065-106.14 2.2197-13.401-10.675-22.199-22.191-28.144-4.99-4.9463-19.184-4.9529-18.572-11.278 5.8737-14.099 11.339-28.547 21.392-40.827 24.428 6.1351 51.659 3.1949 73.366-8.469 8.1119-4.113 16.626-15.826 6.6379-21.994-10.815-5.7543-7.2749 1.8694-4.5947 8.177-15.068 15.112-40.158 18.088-61.652 16.601-14.422 1.2273-4.3904-7.7273 0.92749-12.707 12.185-12.882 31.347-17.337 49.643-16.882 12.407 0.674 3.0238-8.4331-4.8215-6.2558-25.451-3.3462-49.454 10.772-62.914 29.174-5.6071 4.73-15.368-4.2922-22.63-5.0405-23.559-10.269-47.351-26.43-52.166-50.826-1.5524-2.3354-3.9446-2.8978-6.7574-2.1647v1.4e-4z" fill="url(#c)" fill-rule="evenodd"/>
 <path d="m243.4 86.874c-11.874 0.09978-8.6136 13.723-3.7853 19.5 11.092 22.895 33.9 39.875 59.996 48.184 10.9 1.0601 9.0315 8.5114 3.7349 14.451-5.4146 8.1319-9.4269 16.692-13.186 25.451-7.2575 3.6699-16.298-2.3312-24.487-1.7036-11.722-1.3494-24.644 3.0596-29.156 13.524-24.042 31.783-35.582 69.273-52.219 104.26-6.6725 18.74-5.6031 40.802 8.0616 56.831 12.961 17.276 39.706 20.496 60.795 15.33 22.302-5.0179 39.925-20.809 47.176-40.063 17.581-34.252 38.367-68.132 46.574-105.24-0.29456-15.699-17.632-25.318-31.647-31.687-9.9961-1.1238-8.1227-10.123-3.991-15.619 3.7363-9.6803 9.0434-18.632 15.111-27.301 24.13 4.6889 50.259 2.3697 71.782-8.7714 10.547-3.6858 19.187-18.424 9.0686-25.956-6.7799-2.1003-10.145-3.5412-11.928-9.8461-16.694-6.3898-36.33-1.3944-51.367 6.4005-10.561 4.9728-16.755 14.628-25.754 20.857-18.238-2.7995-34.296-13.207-48.2-23.586-10.906-8.6427-16.88-20.567-21.749-32.408-0.85046-1.3136-3.2546-2.6219-4.8309-2.6086zm153.34 39.122c-2.2543 5.8711 1.5191 13.73-7.8667 15.918-15.237 9.6591-35.195 10.579-53.308 9.2557 9.8767-15.758 30.228-23.636 49.926-24.01 3.7509-0.37948 7.4964-0.81596 11.249-1.1636z" fill="url(#d)" fill-rule="evenodd"/>
 <path d="m248.8 198.37c24.057-6.0674 83.307 14.978 88.965 31.392 4.7313 16.538-44.152 100.45-55.396 118.13-11.391 16.889-47.12 27.953-72.942 18.875-24.101-7.0294-32.695-38.922-24.905-54.775 9.0978-16.029 42.996-107.92 64.278-113.62z" fill="#fff" fill-rule="evenodd"/>
 <path d="m244.79 99.588c10.332 15.583 25.021 33.239 69.697 47.678l2.3046-2.6522c-35.139-11.063-58.899-32.042-68.437-46.431l-3.5637 1.4051zm127.11 8.2726c-11.104 0.16717-21.376 4.1489-30.569 10.698-12.258 8.7316-22.703 21.921-31.547 37.125-17.689 30.409-29.796 69.377-34.495 96.898l7.4937 4.6106c4.5734-26.793 14.202-69.78 31.287-99.151 8.5419-14.685 18.286-28.964 29.418-36.895 18.419-16.209 56.807-9.0089 49.103-10.464-3.8756-0.83587-8.8988-3.8012-20.69-2.8208zm19.962 3.1511c3.2784 1.1702 2.148 1.7341 5.8643 5.3417s3.4086 7.4659 3.5638 8.9917c0.15387 1.5245-0.52542 3.524-2.5023 5.9241s-5.1546 5.0166-9.1735 7.4473c-16.078 9.7254-47.002 15.48-66.671 8.104l-1.6439 2.6682c22.721 8.5207 52.516 3.3156 70.385-7.4937 4.4673-2.7014 12.89-9.7785 12.165-16.305-1.238-9.2358-5.6415-14.262-11.988-14.678z" fill="#e5e5e5" fill-rule="evenodd"/>
 <path d="m249.25 197.75c24.058-6.2034 83.308 15.313 88.965 32.095 4.7324 16.909-44.151 102.7-55.396 120.77-11.391 17.267-47.12 28.579-72.942 19.298-24.101-7.1868-32.695-39.793-24.906-56.002 9.0981-16.388 42.996-110.34 64.278-116.16z" fill="url(#e)" fill-rule="evenodd"/>
 <path d="m248.78 195.67c24.057-5.9029 83.308 14.571 88.966 30.539 4.7313 16.09-44.152 97.725-55.396 114.92-11.39 16.431-47.12 27.194-72.942 18.363-24.101-6.8383-32.695-37.865-24.905-53.288 9.0979-15.594 42.996-104.99 64.278-110.53z" fill="url(#f)" fill-rule="evenodd"/>
 <path d="m299.19 205.94c-11.648 15.084-19.497 38.359-19.887 39.387-14.495-5.6349-36.381-11.811-54.48-14.8l-0.20027 1.0641c44.04 7.2735 85.313 26.314 99.998 42.196l0.8717-0.69922c-8.7236-9.4362-24.726-19.274-45.159-27.341 0.35031-0.92476 8.2262-24.221 19.777-39.18l-0.92075-0.62625z" fill-opacity=".5865" fill-rule="evenodd"/>
 <path d="m247.04 264.94c-18.482-6.0157-56.08 39.761-61.005 59.321-5.3736 19.617 24.608 61.612 80.666 31.335 27.357-15.054 43.747-54.903 34.145-73.032s-45.197-14.536-53.807-17.624z" fill="url(#g)" fill-rule="evenodd"/>
</svg>
